# Wavefront Obj file
# 
# verts: 121 uv-s: 275
mtllib doorM.mtl

g Cube
#pivot 0.000000 0.000000 0.000000

v 0.238706 0.503806 -1.804092
v 0.238706 0.503806 1.804092
v -0.238706 0.503806 1.804092
v -0.238706 0.503806 -1.804093
v 0.238706 6.599941 -1.804091
v 0.238706 6.599941 1.804093
v -0.238706 6.599941 1.804092
v -0.238706 6.599941 -1.804092
v 0.238706 5.816976 -1.804091
v 0.238706 5.816976 1.804093
v 0.238706 1.195502 1.804093
v 0.238706 1.195502 -1.804092
v 0.133090 1.195502 1.246818
v 0.133090 5.816976 1.246818
v 0.133090 1.195502 -1.195448
v 0.133091 5.816976 -1.195447
v -0.238706 5.821894 1.804092
v -0.238706 5.821894 -1.804092
v -0.238706 1.199483 1.813171
v -0.238706 1.199483 -1.795014
v -0.094652 5.821894 -1.187565
v -0.094652 1.199483 -1.187565
v -0.094652 5.821894 1.254701
v -0.094652 1.199483 1.254701
v 0.133090 5.169431 1.246818
v 0.133091 5.169431 -1.195447
v 0.133090 4.038332 1.246818
v 0.133091 4.038332 -1.195448
v 0.133090 5.169431 0.737106
v 0.133090 4.038332 0.737106
v 0.133090 5.169431 0.564604
v 0.133090 4.038332 0.564604
v 0.133090 5.169431 0.292232
v 0.133090 4.038332 0.292232
v 0.133090 5.169431 0.101571
v 0.133090 4.038332 0.101571
v 0.133091 5.169431 -0.170800
v 0.133090 4.038332 -0.170800
v 0.133091 5.169431 -0.370540
v 0.133090 4.038332 -0.370540
v 0.133091 5.169431 -0.588437
v 0.133091 4.038332 -0.588437
v 0.133091 5.169431 -0.784637
v 0.133091 4.038332 -0.784637
v 0.133090 5.169431 0.973161
v 0.133090 4.038332 0.973161
v 0.133091 5.169431 -0.960679
v 0.133091 4.038332 -0.960679
v -0.094652 5.170219 -1.187565
v -0.094652 5.170218 1.254701
v -0.094652 4.040591 -1.187565
v -0.094652 4.040591 1.254701
v -0.094652 5.170219 -0.957586
v -0.094652 4.040591 -0.957586
v -0.094652 5.170219 -0.780938
v -0.094652 4.040591 -0.780938
v -0.094652 5.170219 -0.589435
v -0.094652 4.040591 -0.589435
v -0.094652 5.170219 -0.360298
v -0.094652 4.040591 -0.360298
v -0.094652 5.170219 -0.172757
v -0.094652 4.040591 -0.172757
v -0.094652 5.170219 0.104542
v -0.094652 4.040591 0.104542
v -0.094652 5.170219 0.294273
v -0.094652 4.040591 0.294273
v -0.094652 5.170218 0.567923
v -0.094652 4.040591 0.567923
v -0.094652 5.170218 0.735762
v -0.094652 4.040591 0.735762
v -0.094652 5.170218 0.976574
v -0.094652 4.040591 0.976574
v 0.133090 3.256716 1.246818
v 0.133091 3.256716 -1.195448
v 0.133090 2.516643 1.246818
v 0.133091 2.516643 -1.195448
v 0.133091 2.516643 0.860056
v 0.133091 3.256716 0.860056
v 0.133091 3.256716 1.029040
v 0.133091 2.516643 1.029040
v 0.133091 3.003708 0.860056
v 0.133091 2.792568 0.860056
v 0.324892 2.792568 0.860056
v 0.377567 2.961195 1.029040
v 0.441129 2.879745 1.082236
v 0.133090 2.516643 1.102137
v 0.133090 3.256716 1.102116
v 0.133090 3.033020 1.102123
v 0.133091 3.031414 0.860056
v 0.133090 2.756660 1.102130
v 0.133091 2.755064 0.860056
v 0.273547 2.755064 0.860056
v 0.273547 3.031414 0.860056
v 0.273547 3.033020 1.102123
v 0.273547 2.756660 1.102130
v 0.405408 2.755064 0.860056
v 0.405408 3.031414 0.860056
v 0.405408 3.033020 1.102123
v 0.405408 2.756660 1.102131
v 0.273547 2.755064 0.860056
v 0.273547 3.031414 0.860056
v 0.405408 2.755064 0.860056
v 0.405408 3.031414 0.860056
v 0.273548 2.755064 0.429474
v 0.273548 3.031414 0.429474
v 0.405408 2.755064 0.429474
v 0.405408 3.031414 0.429474
v 0.273548 2.755064 0.214210
v 0.273548 3.031414 0.214210
v 0.405408 2.755064 0.214210
v 0.125892 2.755064 0.429474
v 0.405408 2.755064 0.429474
v 0.405408 3.031414 0.429474
v 0.273548 3.031414 0.429474
v 0.273548 2.755064 0.214210
v 0.273548 3.031414 0.214210
v 0.405408 2.755064 0.214210
v 0.405408 3.031414 0.214210
v 0.125892 3.031414 0.429474
v 0.125892 2.755064 0.214210
v 0.125892 3.031414 0.214210
# 121 positions

vt 0.995000 0.005000
vt 0.629840 0.005000
vt 0.629840 0.053316
vt 0.995000 0.053316
vt 0.629840 0.108900
vt 0.629840 0.060584
vt 0.995000 0.060584
vt 0.995000 0.108900
vt 0.005000 0.005000
vt 0.075002 0.005000
vt 0.075002 0.066597
vt 0.075002 0.313762
vt 0.075002 0.370160
vt 0.005000 0.370160
vt 0.621949 0.752508
vt 0.551947 0.752508
vt 0.084239 0.752508
vt 0.005000 0.752508
vt 0.005000 0.800822
vt 0.083741 0.800822
vt 0.551544 0.800829
vt 0.621949 0.800822
vt 0.621949 0.379673
vt 0.551544 0.378754
vt 0.551544 0.435273
vt 0.551544 0.682438
vt 0.551544 0.743914
vt 0.621949 0.744833
vt 0.005000 0.856413
vt 0.084239 0.856413
vt 0.551947 0.856413
vt 0.621949 0.856413
vt 0.621949 0.808099
vt 0.551544 0.808092
vt 0.083741 0.808099
vt 0.005000 0.808099
vt 0.542710 0.370160
vt 0.542710 0.313762
vt 0.542710 0.066597
vt 0.542710 0.005000
vt 0.621949 0.005000
vt 0.621949 0.370160
vt 0.208706 0.313762
vt 0.283603 0.313762
vt 0.362706 0.313762
vt 0.477177 0.313762
vt 0.477177 0.286067
vt 0.477177 0.262178
vt 0.477177 0.244720
vt 0.477177 0.217155
vt 0.477177 0.197859
vt 0.477177 0.170294
vt 0.477177 0.150080
vt 0.477177 0.128028
vt 0.477177 0.108172
vt 0.477177 0.090356
vt 0.477177 0.066597
vt 0.362706 0.066597
vt 0.283603 0.066597
vt 0.208706 0.066597
vt 0.083741 0.744833
vt 0.083741 0.682438
vt 0.083741 0.435273
vt 0.083741 0.379673
vt 0.005000 0.379673
vt 0.005000 0.744833
vt 0.264014 0.682438
vt 0.149693 0.682438
vt 0.149693 0.659164
vt 0.149693 0.641286
vt 0.149693 0.621906
vt 0.149693 0.598716
vt 0.149693 0.579736
vt 0.149693 0.551673
vt 0.149693 0.532471
vt 0.149693 0.504777
vt 0.149693 0.487791
vt 0.149693 0.463420
vt 0.149693 0.435273
vt 0.264014 0.435273
vt 0.362706 0.090356
vt 0.362706 0.108172
vt 0.362706 0.128028
vt 0.362706 0.150080
vt 0.362706 0.170294
vt 0.362706 0.197859
vt 0.362706 0.217155
vt 0.362706 0.244720
vt 0.362706 0.262178
vt 0.362706 0.286067
vt 0.283603 0.299118
vt 0.283603 0.291722
vt 0.283603 0.274620
vt 0.264014 0.463420
vt 0.264014 0.487791
vt 0.264014 0.504777
vt 0.264014 0.532471
vt 0.264014 0.551673
vt 0.264014 0.579736
vt 0.264014 0.598716
vt 0.264014 0.621906
vt 0.264014 0.641286
vt 0.264014 0.659164
vt 0.775057 0.242720
vt 0.774829 0.219669
vt 0.660507 0.219669
vt 0.660586 0.242720
vt 0.775057 0.273407
vt 0.774829 0.250336
vt 0.660507 0.250336
vt 0.660586 0.273408
vt 0.775058 0.420971
vt 0.774829 0.397921
vt 0.660507 0.397921
vt 0.660587 0.420971
vt 0.744390 0.589640
vt 0.744162 0.566589
vt 0.629840 0.566589
vt 0.629920 0.589640
vt 0.744390 0.620307
vt 0.744162 0.597256
vt 0.629840 0.597256
vt 0.629920 0.620307
vt 0.744391 0.627923
vt 0.629920 0.627923
vt 0.629840 0.650974
vt 0.744162 0.650974
vt 0.744391 0.658590
vt 0.629920 0.658590
vt 0.629840 0.681639
vt 0.744162 0.681639
vt 0.744391 0.689257
vt 0.629920 0.689257
vt 0.629840 0.712306
vt 0.744162 0.712306
vt 0.775058 0.116168
vt 0.660587 0.116168
vt 0.660507 0.139217
vt 0.774829 0.139217
vt 0.775057 0.189002
vt 0.660586 0.189002
vt 0.660507 0.212051
vt 0.774829 0.212051
vt 0.652889 0.527364
vt 0.652889 0.503475
vt 0.629840 0.503339
vt 0.629840 0.527709
vt 0.652889 0.458069
vt 0.652889 0.430504
vt 0.629840 0.430711
vt 0.629840 0.458405
vt 0.652889 0.494684
vt 0.652889 0.467120
vt 0.629840 0.466921
vt 0.629840 0.494985
vt 0.652889 0.558075
vt 0.652889 0.536023
vt 0.629840 0.535922
vt 0.629840 0.559112
vt 0.652889 0.243235
vt 0.652889 0.225419
vt 0.629840 0.225732
vt 0.629840 0.243609
vt 0.652888 0.398266
vt 0.629840 0.397921
vt 0.629840 0.422292
vt 0.652888 0.422156
vt 0.652902 0.189349
vt 0.629854 0.189002
vt 0.629840 0.216696
vt 0.652888 0.216914
vt 0.652889 0.116469
vt 0.629840 0.116168
vt 0.629840 0.144231
vt 0.652889 0.144033
vt 0.652888 0.251372
vt 0.629840 0.250336
vt 0.629840 0.273525
vt 0.652888 0.273424
vt 0.652888 0.281377
vt 0.629840 0.281003
vt 0.629840 0.298880
vt 0.652888 0.299193
vt 0.208706 0.274620
vt 0.208706 0.291722
vt 0.208706 0.299120
vt 0.257998 0.274620
vt 0.236630 0.274620
vt 0.232835 0.274620
vt 0.232996 0.299119
vt 0.260965 0.299118
vt 0.644054 0.333888
vt 0.644054 0.305920
vt 0.657400 0.305920
vt 0.657400 0.333888
vt 0.260802 0.274620
vt 0.629840 0.369896
vt 0.654339 0.369896
vt 0.654339 0.355682
vt 0.629840 0.355682
vt 0.629840 0.333888
vt 0.629840 0.305920
vt 0.657808 0.376837
vt 0.629840 0.376837
vt 0.629840 0.391052
vt 0.657808 0.391052
vt 0.695201 0.153313
vt 0.719699 0.153313
vt 0.719699 0.167528
vt 0.695201 0.167528
vt 0.660668 0.453086
vt 0.660507 0.428588
vt 0.688475 0.428588
vt 0.688637 0.453086
vt 0.695201 0.180873
vt 0.695201 0.180873
vt 0.695201 0.180873
vt 0.695201 0.180873
vt 0.654339 0.342337
vt 0.629840 0.342337
vt 0.719699 0.180873
vt 0.660507 0.281003
vt 0.660507 0.294348
vt 0.704083 0.294348
vt 0.704083 0.281003
vt 0.695201 0.167528
vt 0.695201 0.167528
vt 0.695201 0.167528
vt 0.629840 0.167528
vt 0.651626 0.167528
vt 0.651626 0.167528
vt 0.629840 0.167528
vt 0.688475 0.504748
vt 0.660507 0.504748
vt 0.660507 0.461171
vt 0.688475 0.461171
vt 0.651626 0.180873
vt 0.704083 0.540890
vt 0.704083 0.512922
vt 0.660507 0.512922
vt 0.660507 0.540890
vt 0.651626 0.180873
vt 0.629840 0.180873
vt 0.629840 0.180873
vt 0.651626 0.180873
vt 0.662423 0.355363
vt 0.690391 0.355363
vt 0.690391 0.340420
vt 0.662423 0.340420
vt 0.725868 0.294348
vt 0.725868 0.281003
vt 0.629840 0.167528
vt 0.629840 0.167528
vt 0.651626 0.180873
vt 0.629840 0.180873
vt 0.692308 0.302086
vt 0.664340 0.302086
vt 0.664340 0.315431
vt 0.692308 0.315431
vt 0.694225 0.385206
vt 0.666257 0.385206
vt 0.666257 0.363420
vt 0.694225 0.363420
vt 0.724892 0.428588
vt 0.696924 0.428588
vt 0.696924 0.450373
vt 0.724892 0.450373
vt 0.629840 0.152585
vt 0.651626 0.152585
vt 0.724892 0.457338
vt 0.696924 0.457338
vt 0.696924 0.472281
vt 0.724892 0.472281
vt 0.704083 0.309291
vt 0.725868 0.309291
# 275 texture coordinates

vn 0.000000 -1.000000 0.000000
vn 0.000000 1.000000 0.000000
vn 0.996065 0.088626 0.000000
vn 0.029267 -0.003078 0.999567
vn -0.992799 0.119795 0.000000
vn -0.029268 0.003078 -0.999567
vn 0.996925 -0.078362 -0.000000
vn 0.982511 0.000000 -0.186208
vn 1.000000 -0.000000 0.000000
vn 0.985276 -0.000000 0.170971
vn -0.994230 -0.107267 0.000000
vn -0.973332 0.000327 0.229402
vn -1.000000 0.000000 -0.000000
vn -0.967895 -0.000358 -0.251355
vn -0.016240 0.000000 -0.999868
vn -0.044926 0.000000 -0.998990
vn -0.013044 0.000000 -0.999915
vn -0.014572 0.000000 -0.999894
vn -0.014984 0.000000 -0.999888
vn 0.013580 0.000000 0.999908
vn -0.004382 0.000000 0.999990
vn -0.008593 0.000000 0.999963
vn 0.008961 0.000000 0.999960
vn -0.005901 0.000000 0.999983
vn 0.009920 0.999951 0.000000
vn -0.003460 -0.999994 -0.000000
vn -0.000001 0.000017 1.000000
vn -0.000000 -0.999978 0.006593
vn 0.000000 0.000000 -1.000000
vn 0.000000 0.999978 -0.006634
# 30 normals

usemtl Material
f 1/1/1 2/2/1 3/3/1 4/4/1
f 5/5/2 8/6/2 7/7/2 6/8/2
f 1/9/3 12/10/3 15/11/3 13/12/3 11/13/3 2/14/3
f 2/15/4 11/16/4 10/17/4 6/18/4 7/19/4 17/20/4 19/21/4 3/22/4
f 3/23/5 19/24/5 24/25/5 22/26/5 20/27/5 4/28/5
f 5/29/6 9/30/6 12/31/6 1/32/6 4/33/6 20/34/6 18/35/6 8/36/6
f 10/37/7 14/38/7 16/39/7 9/40/7 5/41/7 6/42/7
f 11/13/8 13/12/8 75/43/8 73/44/8 27/45/8 25/46/8 14/38/8 10/37/8
f 14/38/9 25/46/9 45/47/9 29/48/9 31/49/9 33/50/9 35/51/9 37/52/9 39/53/9 41/54/9 43/55/9 47/56/9 26/57/9 16/39/9
f 16/39/10 26/57/10 28/58/10 74/59/10 76/60/10 15/11/10 12/10/10 9/40/10
f 18/61/11 21/62/11 23/63/11 17/64/11 7/65/11 8/66/11
f 20/27/12 22/26/12 51/67/12 49/68/12 21/62/12 18/61/12
f 21/62/13 49/68/13 53/69/13 55/70/13 57/71/13 59/72/13 61/73/13 63/74/13 65/75/13 67/76/13 69/77/13 71/78/13 50/79/13 23/63/13
f 23/63/14 50/79/14 52/80/14 24/25/14 19/24/14 17/64/14
f 26/57/9 47/56/9 48/81/9 28/58/9
f 28/58/9 48/81/9 44/82/9 42/83/9 40/84/9 38/85/9 36/86/9 34/87/9 32/88/9 30/89/9 46/90/9 27/45/9 73/44/9 87/91/9 79/92/9 78/93/9 74/59/9
f 32/88/9 31/49/9 29/48/9 30/89/9
f 36/86/9 35/51/9 33/50/9 34/87/9
f 40/84/9 39/53/9 37/52/9 38/85/9
f 44/82/9 43/55/9 41/54/9 42/83/9
f 46/90/9 45/47/9 25/46/9 27/45/9
f 50/79/13 71/78/13 72/94/13 52/80/13
f 52/80/13 72/94/13 70/95/13 68/96/13 66/97/13 64/98/13 62/99/13 60/100/13 58/101/13 56/102/13 54/103/13 51/67/13 22/26/13 24/25/13
f 54/103/13 53/69/13 49/68/13 51/67/13
f 44/104/15 56/105/15 55/106/15 43/107/15
f 58/101/13 57/71/13 55/70/13 56/102/13
f 40/108/16 60/109/16 59/110/16 39/111/16
f 62/99/13 61/73/13 59/72/13 60/100/13
f 36/112/17 64/113/17 63/114/17 35/115/17
f 66/97/13 65/75/13 63/74/13 64/98/13
f 32/116/18 68/117/18 67/118/18 31/119/18
f 70/95/13 69/77/13 67/76/13 68/96/13
f 46/120/19 72/121/19 71/122/19 45/123/19
f 48/124/20 47/125/20 53/126/20 54/127/20
f 42/128/21 41/129/21 57/130/21 58/131/21
f 38/132/22 37/133/22 61/134/22 62/135/22
f 34/136/23 33/137/23 65/138/23 66/139/23
f 30/140/24 29/141/24 69/142/24 70/143/24
f 46/144/25 30/145/25 70/146/25 72/147/25
f 32/148/25 34/149/25 66/150/25 68/151/25
f 36/152/25 38/153/25 62/154/25 64/155/25
f 40/156/25 42/157/25 58/158/25 60/159/25
f 44/160/25 48/161/25 54/162/25 56/163/25
f 45/164/26 71/165/26 69/166/26 29/167/26
f 31/168/26 67/169/26 65/170/26 33/171/26
f 35/172/26 63/173/26 61/174/26 37/175/26
f 39/176/26 59/177/26 57/178/26 41/179/26
f 43/180/26 55/181/26 53/182/26 47/183/26
f 76/60/9 77/184/9 80/185/9 86/186/9 75/43/9 13/12/9 15/11/9
f 74/59/9 78/93/9 81/187/9 82/188/9 77/184/9 76/60/9
f 77/184/9 91/189/9 90/190/9 86/186/9 80/185/9
f 86/186/9 90/190/9 88/191/9 87/91/9 73/44/9 75/43/9
f 94/192/27 95/193/27 99/194/27 98/195/27
f 88/191/9 89/196/9 78/93/9 79/92/9 87/91/9
f 90/197/28 91/198/28 92/199/28 95/200/28
f 88/201/27 90/202/27 95/193/27 94/192/27
f 91/203/29 89/204/29 93/205/29 92/206/29
f 89/207/30 88/208/30 94/209/30 93/210/30
f 99/211/9 96/212/9 97/213/9 98/214/9
f 97/215/27 96/216/27 102/217/27 103/218/27
f 95/200/28 92/199/28 96/219/28 99/220/28
f 93/210/30 94/209/30 98/221/30 97/215/30
f 102/222/1 100/223/1 104/224/1 106/225/1
f 96/216/27 92/226/27 100/227/27 102/217/27
f 92/226/27 93/210/27 101/228/27 100/227/27
f 93/210/27 97/215/27 103/218/27 101/228/27
f 109/229/27 105/230/27 114/231/27 116/232/27
f 103/233/9 102/234/9 106/235/9 107/236/9
f 101/228/2 103/218/2 107/237/2 105/230/2
f 100/238/13 101/239/13 105/240/13 104/241/13
f 106/242/27 110/243/27 117/244/27 112/245/27
f 109/246/29 108/247/29 120/248/29 121/249/29
f 106/225/1 104/224/1 108/250/1 110/251/1
f 108/252/27 109/229/27 116/232/27 115/253/27
f 114/231/2 113/254/2 118/255/2 116/232/2
f 115/256/29 116/257/29 118/258/29 117/259/29
f 113/260/9 112/261/9 117/262/9 118/263/9
f 105/230/27 107/237/27 113/254/27 114/231/27
f 110/243/27 108/252/27 115/253/27 117/244/27
f 107/237/27 106/242/27 112/245/27 113/254/27
f 111/264/13 119/265/13 121/266/13 120/267/13
f 105/230/2 109/229/2 121/268/2 119/269/2
f 104/270/27 105/271/27 119/272/27 111/273/27
f 108/250/1 104/224/1 111/274/1 120/275/1

# 84 faces
