# Wavefront Obj file
# 
# verts: 8 uv-s: 24
mtllib liftDoor.mtl

g Cube
#pivot 0.000000 0.000000 0.000000

v 0.052819 -2.145972 -1.174140
v 0.052819 -2.145972 1.174140
v -0.052819 -2.145972 1.174140
v -0.052819 -2.145972 -1.174140
v 0.052819 2.145972 -1.174139
v 0.052819 2.145972 1.174141
v -0.052819 2.145972 1.174139
v -0.052819 2.145972 -1.174140
# 8 positions

vt 0.452321 0.974877
vt 0.005000 0.974877
vt 0.005000 0.995000
vt 0.452321 0.995000
vt 0.460480 0.995000
vt 0.460480 0.974877
vt 0.907801 0.974877
vt 0.907801 0.995000
vt 0.005000 0.005000
vt 0.822568 0.005000
vt 0.822568 0.452322
vt 0.005000 0.452321
vt 0.822568 0.915959
vt 0.005000 0.915959
vt 0.005000 0.936082
vt 0.822568 0.936082
vt 0.822568 0.460480
vt 0.005000 0.460480
vt 0.005000 0.907801
vt 0.822568 0.907801
vt 0.005000 0.965541
vt 0.822568 0.965541
vt 0.822568 0.945418
vt 0.005000 0.945418
# 24 texture coordinates

vn 0.000000 -1.000000 0.000000
vn 0.000000 1.000000 0.000000
vn 1.000000 0.000000 0.000000
vn -0.000010 0.000000 1.000000
vn -1.000000 0.000000 0.000000
vn 0.000005 0.000000 -1.000000
# 6 normals

usemtl Material
f 1/1/1 2/2/1 3/3/1 4/4/1
f 5/5/2 8/6/2 7/7/2 6/8/2
f 1/9/3 5/10/3 6/11/3 2/12/3
f 2/13/4 6/14/4 7/15/4 3/16/4
f 3/17/5 7/18/5 8/19/5 4/20/5
f 5/21/6 1/22/6 4/23/6 8/24/6

# 6 faces
